<?xml version="1.0" encoding="utf-8"?>
<!-- Generator: Adobe Illustrator 19.0.0, SVG Export Plug-In . SVG Version: 6.00 Build 0)  -->
<svg version="1.1" id="Layer_4" xmlns="http://www.w3.org/2000/svg" xmlns:xlink="http://www.w3.org/1999/xlink" x="0px" y="0px"
	 viewBox="0 0 267 267" style="enable-background:new 0 0 267 267;" xml:space="preserve">
<style type="text/css">
	.st0{fill:#BEC2C9;}
</style>
<path class="st0" d="M267,14.8v237.4c0,8.1-6.6,14.7-14.7,14.7h-68V163.6H219l5.2-40.3h-39.9V97.6c0-11.7,3.2-19.6,20-19.6l21.3,0
	V42c-3.7-0.5-16.3-1.6-31.1-1.6c-30.8,0-51.8,18.8-51.8,53.2v29.7h-34.8v40.3h34.8v103.4H14.8c-8.1,0-14.7-6.6-14.7-14.7V14.8
	c0-8.1,6.6-14.7,14.7-14.7h237.4C260.4,0.1,267,6.6,267,14.8z"/>
</svg>
